<svg data-v-0dd9719b="" version="1.0" xmlns="http://www.w3.org/2000/svg" xmlns:xlink="http://www.w3.org/1999/xlink" width="100%" height="100%" viewBox="0 0 340.000000 250.000000" preserveAspectRatio="xMidYMid meet" color-interpolation-filters="sRGB" style="margin: auto;">   <g data-v-0dd9719b="" fill="#070707" class="iconlinesvg-g iconlinesvg" transform="translate(82.626704454422,90.9827880859375)"><g class="tp-name"><g transform="translate(0, 4.430292598967295)"><g data-gra="path-name" fill="#070707" transform="scale(1)"><path d="M47.40-40.28L47.40-40.28L40.28-40.28Q39.66-51.12 26.02-51.74L26.02-51.74Q13.32-51.43 13.32-41.82L13.32-41.82Q13.32-35.63 20.14-34.70L20.14-34.70L36.25-30.98Q48.95-27.88 48.95-15.49L48.95-15.49Q48.64 0.31 26.64 0.93L26.64 0.93Q14.56 0.93 9.60-4.03L9.60-4.03Q3.41-8.67 3.72-18.28L3.72-18.28L11.15-18.28Q11.46-5.27 26.64-4.96L26.64-4.96Q41.51-5.27 41.82-14.56L41.82-14.56Q43.06-22.31 29.43-24.78L29.43-24.78L17.66-27.26Q5.58-30.67 5.58-40.90L5.58-40.90Q6.51-57.62 25.40-58.24L25.40-58.24Q46.78-58.24 47.40-40.28Z" transform="translate(-3.702975165970002, 58.24440619621342)"></path></g></g><g transform="translate(49, 0)"><g><g class="imagesvg"><g><rect fill="#070707" fill-opacity="0" stroke-width="2" x="0" y="0" width="68.03442340791737" height="68.03442340791737" class="image-rect"></rect> <svg x="0" y="0" width="68.03442340791737" height="68.03442340791737" filtersec="colorsb901361901" class="image-svg-svg primary" style="overflow: visible;"><svg xmlns="http://www.w3.org/2000/svg" viewBox="0.003000000026077032 0.003000000026077032 97.49700164794922 97.49700164794922"><path fill="#070707" d="M48.751.003L.003 97.5H97.5L48.75.003zm11.226 40.62H37.525l4.064-8.128H55.92l4.057 8.128zm4.064 8.128l4.065 8.128h-38.71l4.065-8.128h30.58zm8.122 16.25l4.064 8.128H21.275L25.34 65h46.824zM51.856 24.373h-6.203l3.105-6.21 3.098 6.21zM17.211 81.25h63.08l4.064 8.121H13.147l4.064-8.12z"></path></svg></svg> <!----></g></g></g></g><g transform="translate(121, 4.430292598967295)"><g data-gra="path-name" fill="#070707" transform="scale(1)"><path d="M30.05-50.50L14.56-50.50L14.56-30.67L29.74-30.67Q41.51-30.67 41.51-40.90L41.51-40.90Q41.51-50.19 30.05-50.50L30.05-50.50ZM32.53-23.86L14.56-23.86L14.56 0L6.82 0L6.82-56.70L32.53-56.70Q48.64-56.08 49.26-40.90L49.26-40.90Q48.33-24.48 32.53-23.86L32.53-23.86Z" transform="translate(-6.815834767641995, 58.24440619621342)"></path></g></g><g transform="translate(167, 4.430292598967295)"><g data-gra="path-name" fill="#070707" transform="scale(1)"><path d="M7.13-56.70L14.87-56.70L14.87 0L7.13 0L7.13-56.70Z" transform="translate(-7.12564543889845, 58.24440619621342)"></path></g></g></g> <!----></g><defs v-gra="od"></defs></svg>
